 <svg version="1.1"
             xmlns="http://www.w3.org/2000/svg" xmlns:xlink="http://www.w3.org/1999/xlink"
             width="1012.5" height="675.0"> 
 <g id="g01" transform="translate(506.25 337.5)"> <image x="0" y="0" width="79" height="90" transform="'''rotate(45)'''"
           xlink:href="test00.png"/> <polyline points="77.97114317029974,67.5,39.0,90.0,0.02885682970026693,67.50000000000001,0.028856829700252717,22.500000000000014,38.99999999999999,0.0,77.97114317029974,22.500000000000014,77.97114317029974,67.5," style="stroke:#f00;stroke-width:hairline;fill:none;"/> </g> 
<g id="g02" transform="translate(592.8525403784438 337.5)"> <image x="0" y="0" width="79" height="90" transform="'''rotate(45)'''"
           xlink:href="test01.png"/> <polyline points="77.97114317029974,67.5,39.0,90.0,0.02885682970026693,67.50000000000001,0.028856829700252717,22.500000000000014,38.99999999999999,0.0,77.97114317029974,22.500000000000014,77.97114317029974,67.5," style="stroke:#f00;stroke-width:hairline;fill:none;"/> </g> 
<g id="g03" transform="translate(549.5512701892219 412.5)"> <image x="0" y="0" width="79" height="90" transform="'''rotate(45)'''"
           xlink:href="test02.png"/> <polyline points="77.97114317029974,67.5,39.0,90.0,0.02885682970026693,67.50000000000001,0.028856829700252717,22.500000000000014,38.99999999999999,0.0,77.97114317029974,22.500000000000014,77.97114317029974,67.5," style="stroke:#f00;stroke-width:hairline;fill:none;"/> </g> 
<g id="g04" transform="translate(462.9487298107781 412.5)"> <image x="0" y="0" width="79" height="90" transform="'''rotate(45)'''"
           xlink:href="test03.png"/> <polyline points="77.97114317029974,67.5,39.0,90.0,0.02885682970026693,67.50000000000001,0.028856829700252717,22.500000000000014,38.99999999999999,0.0,77.97114317029974,22.500000000000014,77.97114317029974,67.5," style="stroke:#f00;stroke-width:hairline;fill:none;"/> </g> 
<g id="g05" transform="translate(419.6474596215561 337.5)"> <image x="0" y="0" width="79" height="90" transform="'''rotate(45)'''"
           xlink:href="test04.png"/> <polyline points="77.97114317029974,67.5,39.0,90.0,0.02885682970026693,67.50000000000001,0.028856829700252717,22.500000000000014,38.99999999999999,0.0,77.97114317029974,22.500000000000014,77.97114317029974,67.5," style="stroke:#f00;stroke-width:hairline;fill:none;"/> </g> 
<g id="g06" transform="translate(462.948729810778 262.5)"> <image x="0" y="0" width="79" height="90" transform="'''rotate(45)'''"
           xlink:href="test05.png"/> <polyline points="77.97114317029974,67.5,39.0,90.0,0.02885682970026693,67.50000000000001,0.028856829700252717,22.500000000000014,38.99999999999999,0.0,77.97114317029974,22.500000000000014,77.97114317029974,67.5," style="stroke:#f00;stroke-width:hairline;fill:none;"/> </g> 
<g id="g07" transform="translate(549.5512701892219 262.5)"> <image x="0" y="0" width="79" height="90" transform="'''rotate(45)'''"
           xlink:href="test06.png"/> <polyline points="77.97114317029974,67.5,39.0,90.0,0.02885682970026693,67.50000000000001,0.028856829700252717,22.500000000000014,38.99999999999999,0.0,77.97114317029974,22.500000000000014,77.97114317029974,67.5," style="stroke:#f00;stroke-width:hairline;fill:none;"/> </g> 
<g id="g08" transform="translate(679.4550807568878 337.5)"> <image x="0" y="0" width="79" height="90" transform="'''rotate(45)'''"
           xlink:href="test07.png"/> <polyline points="77.97114317029974,67.5,39.0,90.0,0.02885682970026693,67.50000000000001,0.028856829700252717,22.500000000000014,38.99999999999999,0.0,77.97114317029974,22.500000000000014,77.97114317029974,67.5," style="stroke:#f00;stroke-width:hairline;fill:none;"/> </g> 
<g id="g09" transform="translate(636.1538105676659 412.5)"> <image x="0" y="0" width="79" height="90" transform="'''rotate(45)'''"
           xlink:href="test08.png"/> <polyline points="77.97114317029974,67.5,39.0,90.0,0.02885682970026693,67.50000000000001,0.028856829700252717,22.500000000000014,38.99999999999999,0.0,77.97114317029974,22.500000000000014,77.97114317029974,67.5," style="stroke:#f00;stroke-width:hairline;fill:none;"/> </g> 
<g id="g10" transform="translate(592.8525403784438 487.5)"> <image x="0" y="0" width="79" height="90" transform="'''rotate(45)'''"
           xlink:href="test09.png"/> <polyline points="77.97114317029974,67.5,39.0,90.0,0.02885682970026693,67.50000000000001,0.028856829700252717,22.500000000000014,38.99999999999999,0.0,77.97114317029974,22.500000000000014,77.97114317029974,67.5," style="stroke:#f00;stroke-width:hairline;fill:none;"/> </g> 
<g id="g11" transform="translate(506.25 487.5)"> <image x="0" y="0" width="79" height="90" transform="'''rotate(45)'''"
           xlink:href="test10.png"/> <polyline points="77.97114317029974,67.5,39.0,90.0,0.02885682970026693,67.50000000000001,0.028856829700252717,22.500000000000014,38.99999999999999,0.0,77.97114317029974,22.500000000000014,77.97114317029974,67.5," style="stroke:#f00;stroke-width:hairline;fill:none;"/> </g> 
<g id="g12" transform="translate(419.6474596215562 487.5)"> <image x="0" y="0" width="79" height="90" transform="'''rotate(45)'''"
           xlink:href="test11.png"/> <polyline points="77.97114317029974,67.5,39.0,90.0,0.02885682970026693,67.50000000000001,0.028856829700252717,22.500000000000014,38.99999999999999,0.0,77.97114317029974,22.500000000000014,77.97114317029974,67.5," style="stroke:#f00;stroke-width:hairline;fill:none;"/> </g> 
<g id="g13" transform="translate(376.3461894323342 412.5)"> <image x="0" y="0" width="79" height="90" transform="'''rotate(45)'''"
           xlink:href="test12.png"/> <polyline points="77.97114317029974,67.5,39.0,90.0,0.02885682970026693,67.50000000000001,0.028856829700252717,22.500000000000014,38.99999999999999,0.0,77.97114317029974,22.500000000000014,77.97114317029974,67.5," style="stroke:#f00;stroke-width:hairline;fill:none;"/> </g> 
<g id="g14" transform="translate(333.0449192431123 337.5)"> <image x="0" y="0" width="79" height="90" transform="'''rotate(45)'''"
           xlink:href="test13.png"/> <polyline points="77.97114317029974,67.5,39.0,90.0,0.02885682970026693,67.50000000000001,0.028856829700252717,22.500000000000014,38.99999999999999,0.0,77.97114317029974,22.500000000000014,77.97114317029974,67.5," style="stroke:#f00;stroke-width:hairline;fill:none;"/> </g> 
<g id="g15" transform="translate(376.3461894323342 262.5)"> <image x="0" y="0" width="79" height="90" transform="'''rotate(45)'''"
           xlink:href="test14.png"/> <polyline points="77.97114317029974,67.5,39.0,90.0,0.02885682970026693,67.50000000000001,0.028856829700252717,22.500000000000014,38.99999999999999,0.0,77.97114317029974,22.500000000000014,77.97114317029974,67.5," style="stroke:#f00;stroke-width:hairline;fill:none;"/> </g> 
<g id="g16" transform="translate(419.6474596215561 187.5)"> <image x="0" y="0" width="79" height="90" transform="'''rotate(45)'''"
           xlink:href="test15.png"/> <polyline points="77.97114317029974,67.5,39.0,90.0,0.02885682970026693,67.50000000000001,0.028856829700252717,22.500000000000014,38.99999999999999,0.0,77.97114317029974,22.500000000000014,77.97114317029974,67.5," style="stroke:#f00;stroke-width:hairline;fill:none;"/> </g> 
<g id="g17" transform="translate(506.2499999999999 187.5)"> <image x="0" y="0" width="79" height="90" transform="'''rotate(45)'''"
           xlink:href="test16.png"/> <polyline points="77.97114317029974,67.5,39.0,90.0,0.02885682970026693,67.50000000000001,0.028856829700252717,22.500000000000014,38.99999999999999,0.0,77.97114317029974,22.500000000000014,77.97114317029974,67.5," style="stroke:#f00;stroke-width:hairline;fill:none;"/> </g> 
<g id="g18" transform="translate(592.8525403784438 187.5)"> <image x="0" y="0" width="79" height="90" transform="'''rotate(45)'''"
           xlink:href="test17.png"/> <polyline points="77.97114317029974,67.5,39.0,90.0,0.02885682970026693,67.50000000000001,0.028856829700252717,22.500000000000014,38.99999999999999,0.0,77.97114317029974,22.500000000000014,77.97114317029974,67.5," style="stroke:#f00;stroke-width:hairline;fill:none;"/> </g> 
<g id="g19" transform="translate(636.1538105676657 262.4999999999999)"> <image x="0" y="0" width="79" height="91" transform="'''rotate(45)'''"
           xlink:href="test18.png"/> <polyline points="77.97114317029974,67.5,39.0,90.0,0.02885682970026693,67.50000000000001,0.028856829700252717,22.500000000000014,38.99999999999999,0.0,77.97114317029974,22.500000000000014,77.97114317029974,67.5," style="stroke:#f00;stroke-width:hairline;fill:none;"/> </g> 
</svg>