 <svg version="1.1"
             xmlns="http://www.w3.org/2000/svg" xmlns:xlink="http://www.w3.org/1999/xlink"
             width="1012.5" height="675.0"> 
 <g id="g01" transform="translate(506.25 337.5)"> <image x="0" y="0" width="79" height="90" transform="'''rotate(45)'''"
           xlink:href="test00.png"/> <polyline points="77.97114317029974,67.5,39.0,90.0,0.02885682970026693,67.50000000000001,0.028856829700252717,22.500000000000014,38.99999999999999,0.0,77.97114317029974,22.500000000000014,77.97114317029974,67.5," style="stroke:#f00;stroke-width:hairline;fill:none;"/> </g> 
<g id="g02" transform="translate(592.8525403784438 337.5)"> <image x="0" y="0" width="79" height="90" transform="'''rotate(45)'''"
           xlink:href="test01.png"/> <polyline points="77.97114317029974,67.5,39.0,90.0,0.02885682970026693,67.50000000000001,0.028856829700252717,22.500000000000014,38.99999999999999,0.0,77.97114317029974,22.500000000000014,77.97114317029974,67.5," style="stroke:#f00;stroke-width:hairline;fill:none;"/> </g> 
<g id="g03" transform="translate(549.5512701892219 412.5)"> <image x="0" y="0" width="79" height="90" transform="'''rotate(45)'''"
           xlink:href="test02.png"/> <polyline points="77.97114317029974,67.5,39.0,90.0,0.02885682970026693,67.50000000000001,0.028856829700252717,22.500000000000014,38.99999999999999,0.0,77.97114317029974,22.500000000000014,77.97114317029974,67.5," style="stroke:#f00;stroke-width:hairline;fill:none;"/> </g> 
<g id="g04" transform="translate(462.9487298107781 412.5)"> <image x="0" y="0" width="79" height="90" transform="'''rotate(45)'''"
           xlink:href="test03.png"/> <polyline points="77.97114317029974,67.5,39.0,90.0,0.02885682970026693,67.50000000000001,0.028856829700252717,22.500000000000014,38.99999999999999,0.0,77.97114317029974,22.500000000000014,77.97114317029974,67.5," style="stroke:#f00;stroke-width:hairline;fill:none;"/> </g> 
<g id="g05" transform="translate(419.6474596215561 337.5)"> <image x="0" y="0" width="79" height="90" transform="'''rotate(45)'''"
           xlink:href="test04.png"/> <polyline points="77.97114317029974,67.5,39.0,90.0,0.02885682970026693,67.50000000000001,0.028856829700252717,22.500000000000014,38.99999999999999,0.0,77.97114317029974,22.500000000000014,77.97114317029974,67.5," style="stroke:#f00;stroke-width:hairline;fill:none;"/> </g> 
<g id="g06" transform="translate(462.948729810778 262.5)"> <image x="0" y="0" width="79" height="90" transform="'''rotate(45)'''"
           xlink:href="test05.png"/> <polyline points="77.97114317029974,67.5,39.0,90.0,0.02885682970026693,67.50000000000001,0.028856829700252717,22.500000000000014,38.99999999999999,0.0,77.97114317029974,22.500000000000014,77.97114317029974,67.5," style="stroke:#f00;stroke-width:hairline;fill:none;"/> </g> 
<g id="g07" transform="translate(549.5512701892219 262.5)"> <image x="0" y="0" width="79" height="90" transform="'''rotate(45)'''"
           xlink:href="test06.png"/> <polyline points="77.97114317029974,67.5,39.0,90.0,0.02885682970026693,67.50000000000001,0.028856829700252717,22.500000000000014,38.99999999999999,0.0,77.97114317029974,22.500000000000014,77.97114317029974,67.5," style="stroke:#f00;stroke-width:hairline;fill:none;"/> </g> 
<g id="g08" transform="translate(679.4550807568878 337.5)"> <image x="0" y="0" width="79" height="90" transform="'''rotate(45)'''"
           xlink:href="test07.png"/> <polyline points="77.97114317029974,67.5,39.0,90.0,0.02885682970026693,67.50000000000001,0.028856829700252717,22.500000000000014,38.99999999999999,0.0,77.97114317029974,22.500000000000014,77.97114317029974,67.5," style="stroke:#f00;stroke-width:hairline;fill:none;"/> </g> 
<g id="g09" transform="translate(636.1538105676659 412.5)"> <image x="0" y="0" width="79" height="90" transform="'''rotate(45)'''"
           xlink:href="test08.png"/> <polyline points="77.97114317029974,67.5,39.0,90.0,0.02885682970026693,67.50000000000001,0.028856829700252717,22.500000000000014,38.99999999999999,0.0,77.97114317029974,22.500000000000014,77.97114317029974,67.5," style="stroke:#f00;stroke-width:hairline;fill:none;"/> </g> 
<g id="g10" transform="translate(592.8525403784438 487.5)"> <image x="0" y="0" width="79" height="90" transform="'''rotate(45)'''"
           xlink:href="test09.png"/> <polyline points="77.97114317029974,67.5,39.0,90.0,0.02885682970026693,67.50000000000001,0.028856829700252717,22.500000000000014,38.99999999999999,0.0,77.97114317029974,22.500000000000014,77.97114317029974,67.5," style="stroke:#f00;stroke-width:hairline;fill:none;"/> </g> 
<g id="g11" transform="translate(506.25 487.5)"> <image x="0" y="0" width="79" height="90" transform="'''rotate(45)'''"
           xlink:href="test10.png"/> <polyline points="77.97114317029974,67.5,39.0,90.0,0.02885682970026693,67.50000000000001,0.028856829700252717,22.500000000000014,38.99999999999999,0.0,77.97114317029974,22.500000000000014,77.97114317029974,67.5," style="stroke:#f00;stroke-width:hairline;fill:none;"/> </g> 
<g id="g12" transform="translate(419.6474596215562 487.5)"> <image x="0" y="0" width="79" height="90" transform="'''rotate(45)'''"
           xlink:href="test11.png"/> <polyline points="77.97114317029974,67.5,39.0,90.0,0.02885682970026693,67.50000000000001,0.028856829700252717,22.500000000000014,38.99999999999999,0.0,77.97114317029974,22.500000000000014,77.97114317029974,67.5," style="stroke:#f00;stroke-width:hairline;fill:none;"/> </g> 
<g id="g13" transform="translate(376.3461894323342 412.5)"> <image x="0" y="0" width="79" height="90" transform="'''rotate(45)'''"
           xlink:href="test12.png"/> <polyline points="77.97114317029974,67.5,39.0,90.0,0.02885682970026693,67.50000000000001,0.028856829700252717,22.500000000000014,38.99999999999999,0.0,77.97114317029974,22.500000000000014,77.97114317029974,67.5," style="stroke:#f00;stroke-width:hairline;fill:none;"/> </g> 
<g id="g14" transform="translate(333.0449192431123 337.5)"> <image x="0" y="0" width="79" height="90" transform="'''rotate(45)'''"
           xlink:href="test13.png"/> <polyline points="77.97114317029974,67.5,39.0,90.0,0.02885682970026693,67.50000000000001,0.028856829700252717,22.500000000000014,38.99999999999999,0.0,77.97114317029974,22.500000000000014,77.97114317029974,67.5," style="stroke:#f00;stroke-width:hairline;fill:none;"/> </g> 
<g id="g15" transform="translate(376.3461894323342 262.5)"> <image x="0" y="0" width="79" height="90" transform="'''rotate(45)'''"
           xlink:href="test14.png"/> <polyline points="77.97114317029974,67.5,39.0,90.0,0.02885682970026693,67.50000000000001,0.028856829700252717,22.500000000000014,38.99999999999999,0.0,77.97114317029974,22.500000000000014,77.97114317029974,67.5," style="stroke:#f00;stroke-width:hairline;fill:none;"/> </g> 
<g id="g16" transform="translate(419.6474596215561 187.5)"> <image x="0" y="0" width="79" height="90" transform="'''rotate(45)'''"
           xlink:href="test15.png"/> <polyline points="77.97114317029974,67.5,39.0,90.0,0.02885682970026693,67.50000000000001,0.028856829700252717,22.500000000000014,38.99999999999999,0.0,77.97114317029974,22.500000000000014,77.97114317029974,67.5," style="stroke:#f00;stroke-width:hairline;fill:none;"/> </g> 
<g id="g17" transform="translate(506.2499999999999 187.5)"> <image x="0" y="0" width="79" height="90" transform="'''rotate(45)'''"
           xlink:href="test16.png"/> <polyline points="77.97114317029974,67.5,39.0,90.0,0.02885682970026693,67.50000000000001,0.028856829700252717,22.500000000000014,38.99999999999999,0.0,77.97114317029974,22.500000000000014,77.97114317029974,67.5," style="stroke:#f00;stroke-width:hairline;fill:none;"/> </g> 
<g id="g18" transform="translate(592.8525403784438 187.5)"> <image x="0" y="0" width="79" height="90" transform="'''rotate(45)'''"
           xlink:href="test17.png"/> <polyline points="77.97114317029974,67.5,39.0,90.0,0.02885682970026693,67.50000000000001,0.028856829700252717,22.500000000000014,38.99999999999999,0.0,77.97114317029974,22.500000000000014,77.97114317029974,67.5," style="stroke:#f00;stroke-width:hairline;fill:none;"/> </g> 
<g id="g19" transform="translate(636.1538105676657 262.4999999999999)"> <image x="0" y="0" width="79" height="91" transform="'''rotate(45)'''"
           xlink:href="test18.png"/> <polyline points="77.97114317029974,67.5,39.0,90.0,0.02885682970026693,67.50000000000001,0.028856829700252717,22.500000000000014,38.99999999999999,0.0,77.97114317029974,22.500000000000014,77.97114317029974,67.5," style="stroke:#f00;stroke-width:hairline;fill:none;"/> </g> 
<g id="fullHexes"><polyline points="588.5224133595216,407.5,545.2211431702997,432.5,501.9198729810778,407.5,501.91987298107773,357.5,545.2211431702997,332.5,588.5224133595216,357.5,588.5224133595216,407.5," style="stroke:#00f;stroke-width:hairline;fill:none;"/><polyline points="675.1249537379654,407.5,631.8236835487435,432.5,588.5224133595216,407.5,588.5224133595216,357.5,631.8236835487435,332.5,675.1249537379654,357.5,675.1249537379654,407.5," style="stroke:#00f;stroke-width:hairline;fill:none;"/><polyline points="631.8236835487435,482.5,588.5224133595216,507.5,545.2211431702997,482.5,545.2211431702997,432.5,588.5224133595216,407.5,631.8236835487435,432.5,631.8236835487435,482.5," style="stroke:#00f;stroke-width:hairline;fill:none;"/><polyline points="545.2211431702998,482.5,501.91987298107784,507.5,458.6186027918559,482.5,458.6186027918559,432.5,501.91987298107784,407.5,545.2211431702998,432.5,545.2211431702998,482.5," style="stroke:#00f;stroke-width:hairline;fill:none;"/><polyline points="501.9198729810778,407.5,458.61860279185584,432.5,415.3173326026339,407.5,415.3173326026339,357.5,458.61860279185584,332.5,501.9198729810778,357.5,501.9198729810778,407.5," style="stroke:#00f;stroke-width:hairline;fill:none;"/><polyline points="545.2211431702997,332.5,501.91987298107773,357.5,458.6186027918558,332.5,458.6186027918558,282.5,501.91987298107773,257.5,545.2211431702997,282.5,545.2211431702997,332.5," style="stroke:#00f;stroke-width:hairline;fill:none;"/><polyline points="631.8236835487435,332.5,588.5224133595216,357.5,545.2211431702997,332.5,545.2211431702997,282.5,588.5224133595216,257.5,631.8236835487435,282.5,631.8236835487435,332.5," style="stroke:#00f;stroke-width:hairline;fill:none;"/><polyline points="761.7274941164094,407.5,718.4262239271875,432.5,675.1249537379656,407.5,675.1249537379656,357.5,718.4262239271875,332.5,761.7274941164094,357.5,761.7274941164094,407.5," style="stroke:#00f;stroke-width:hairline;fill:none;"/><polyline points="718.4262239271875,482.5,675.1249537379656,507.5,631.8236835487437,482.5,631.8236835487437,432.5,675.1249537379656,407.5,718.4262239271875,432.5,718.4262239271875,482.5," style="stroke:#00f;stroke-width:hairline;fill:none;"/><polyline points="675.1249537379654,557.5,631.8236835487435,582.5,588.5224133595216,557.5,588.5224133595216,507.5,631.8236835487435,482.5,675.1249537379654,507.5,675.1249537379654,557.5," style="stroke:#00f;stroke-width:hairline;fill:none;"/><polyline points="588.5224133595216,557.5,545.2211431702997,582.5,501.9198729810778,557.5,501.91987298107773,507.5,545.2211431702997,482.5,588.5224133595216,507.5,588.5224133595216,557.5," style="stroke:#00f;stroke-width:hairline;fill:none;"/><polyline points="501.9198729810779,557.5,458.61860279185595,582.5,415.317332602634,557.5,415.317332602634,507.5,458.61860279185595,482.5,501.9198729810779,507.5,501.9198729810779,557.5," style="stroke:#00f;stroke-width:hairline;fill:none;"/><polyline points="458.6186027918559,482.5,415.31733260263394,507.5,372.016062413412,482.5,372.016062413412,432.5,415.31733260263394,407.5,458.6186027918559,432.5,458.6186027918559,482.5," style="stroke:#00f;stroke-width:hairline;fill:none;"/><polyline points="415.317332602634,407.5,372.01606241341204,432.5,328.7147922241901,407.5,328.7147922241901,357.5,372.01606241341204,332.5,415.317332602634,357.5,415.317332602634,407.5," style="stroke:#00f;stroke-width:hairline;fill:none;"/><polyline points="458.6186027918559,332.5,415.31733260263394,357.5,372.016062413412,332.5,372.016062413412,282.5,415.31733260263394,257.5,458.6186027918559,282.5,458.6186027918559,332.5," style="stroke:#00f;stroke-width:hairline;fill:none;"/><polyline points="501.9198729810778,257.5,458.61860279185584,282.5,415.3173326026339,257.5,415.3173326026339,207.5,458.61860279185584,182.5,501.9198729810778,207.50000000000003,501.9198729810778,257.5," style="stroke:#00f;stroke-width:hairline;fill:none;"/><polyline points="588.5224133595216,257.5,545.2211431702997,282.5,501.9198729810778,257.5,501.91987298107773,207.5,545.2211431702997,182.5,588.5224133595216,207.50000000000003,588.5224133595216,257.5," style="stroke:#00f;stroke-width:hairline;fill:none;"/><polyline points="675.1249537379654,257.5,631.8236835487435,282.5,588.5224133595216,257.5,588.5224133595216,207.5,631.8236835487435,182.5,675.1249537379654,207.50000000000003,675.1249537379654,257.5," style="stroke:#00f;stroke-width:hairline;fill:none;"/><polyline points="718.4262239271873,332.4999999999999,675.1249537379654,357.4999999999999,631.8236835487435,332.4999999999999,631.8236835487435,282.4999999999999,675.1249537379654,257.4999999999999,718.4262239271873,282.4999999999999,718.4262239271873,332.4999999999999," style="stroke:#00f;stroke-width:hairline;fill:none;"/></g><g id="smallHexes"><polyline points="584.1922863405994,405.0,545.2211431702997,427.5,506.24999999999994,405.0,506.24999999999994,360.0,545.2211431702997,337.5,584.1922863405995,360.0,584.1922863405994,405.0," style="stroke:#00f;stroke-width:hairline;fill:none;"/><polyline points="670.7948267190432,405.0,631.8236835487435,427.5,592.8525403784438,405.0,592.8525403784437,360.0,631.8236835487435,337.5,670.7948267190433,360.0,670.7948267190432,405.0," style="stroke:#00f;stroke-width:hairline;fill:none;"/><polyline points="627.4935565298213,480.0,588.5224133595216,502.5,549.5512701892219,480.0,549.5512701892218,435.0,588.5224133595216,412.5,627.4935565298214,435.0,627.4935565298213,480.0," style="stroke:#00f;stroke-width:hairline;fill:none;"/><polyline points="540.8910161513776,480.0,501.91987298107784,502.5,462.9487298107781,480.0,462.9487298107781,435.0,501.91987298107784,412.5,540.8910161513776,435.0,540.8910161513776,480.0," style="stroke:#00f;stroke-width:hairline;fill:none;"/><polyline points="497.5897459621556,405.0,458.61860279185584,427.5,419.6474596215561,405.0,419.6474596215561,360.0,458.61860279185584,337.5,497.5897459621556,360.0,497.5897459621556,405.0," style="stroke:#00f;stroke-width:hairline;fill:none;"/><polyline points="540.8910161513775,330.0,501.91987298107773,352.5,462.948729810778,330.0,462.948729810778,285.0,501.91987298107773,262.5,540.8910161513775,285.0,540.8910161513775,330.0," style="stroke:#00f;stroke-width:hairline;fill:none;"/><polyline points="627.4935565298213,330.0,588.5224133595216,352.5,549.5512701892219,330.0,549.5512701892218,285.0,588.5224133595216,262.5,627.4935565298214,285.0,627.4935565298213,330.0," style="stroke:#00f;stroke-width:hairline;fill:none;"/><polyline points="757.3973670974872,405.0,718.4262239271875,427.5,679.4550807568878,405.0,679.4550807568877,360.0,718.4262239271875,337.5,757.3973670974873,360.0,757.3973670974872,405.0," style="stroke:#00f;stroke-width:hairline;fill:none;"/><polyline points="714.0960969082653,480.0,675.1249537379656,502.5,636.1538105676659,480.0,636.1538105676658,435.0,675.1249537379656,412.5,714.0960969082654,435.0,714.0960969082653,480.0," style="stroke:#00f;stroke-width:hairline;fill:none;"/><polyline points="670.7948267190432,555.0,631.8236835487435,577.5,592.8525403784438,555.0,592.8525403784437,510.0,631.8236835487435,487.5,670.7948267190433,510.0,670.7948267190432,555.0," style="stroke:#00f;stroke-width:hairline;fill:none;"/><polyline points="584.1922863405994,555.0,545.2211431702997,577.5,506.24999999999994,555.0,506.24999999999994,510.0,545.2211431702997,487.5,584.1922863405995,510.0,584.1922863405994,555.0," style="stroke:#00f;stroke-width:hairline;fill:none;"/><polyline points="497.5897459621557,555.0,458.61860279185595,577.5,419.6474596215562,555.0,419.6474596215562,510.0,458.61860279185595,487.5,497.5897459621557,510.0,497.5897459621557,555.0," style="stroke:#00f;stroke-width:hairline;fill:none;"/><polyline points="454.2884757729337,480.0,415.31733260263394,502.5,376.3461894323342,480.0,376.3461894323342,435.0,415.31733260263394,412.5,454.2884757729337,435.0,454.2884757729337,480.0," style="stroke:#00f;stroke-width:hairline;fill:none;"/><polyline points="410.9872055837118,405.0,372.01606241341204,427.5,333.0449192431123,405.0,333.0449192431123,360.0,372.01606241341204,337.5,410.9872055837118,360.0,410.9872055837118,405.0," style="stroke:#00f;stroke-width:hairline;fill:none;"/><polyline points="454.2884757729337,330.0,415.31733260263394,352.5,376.3461894323342,330.0,376.3461894323342,285.0,415.31733260263394,262.5,454.2884757729337,285.0,454.2884757729337,330.0," style="stroke:#00f;stroke-width:hairline;fill:none;"/><polyline points="497.5897459621556,255.0,458.61860279185584,277.5,419.6474596215561,255.0,419.6474596215561,210.0,458.61860279185584,187.5,497.5897459621556,210.0,497.5897459621556,255.0," style="stroke:#00f;stroke-width:hairline;fill:none;"/><polyline points="584.1922863405994,255.0,545.2211431702997,277.5,506.24999999999994,255.0,506.24999999999994,210.0,545.2211431702997,187.5,584.1922863405995,210.0,584.1922863405994,255.0," style="stroke:#00f;stroke-width:hairline;fill:none;"/><polyline points="670.7948267190432,255.0,631.8236835487435,277.5,592.8525403784438,255.0,592.8525403784437,210.0,631.8236835487435,187.5,670.7948267190433,210.0,670.7948267190432,255.0," style="stroke:#00f;stroke-width:hairline;fill:none;"/><polyline points="714.096096908265,329.9999999999999,675.1249537379654,352.4999999999999,636.1538105676657,329.9999999999999,636.1538105676656,284.9999999999999,675.1249537379654,262.4999999999999,714.0960969082652,284.9999999999999,714.096096908265,329.9999999999999," style="stroke:#00f;stroke-width:hairline;fill:none;"/></g></svg>