 <svg version="1.1"
             xmlns="http://www.w3.org/2000/svg" xmlns:xlink="http://www.w3.org/1999/xlink"
             width="1012.5" height="675.0"> 
 <g id="g01" transform="translate(506.25 337.5)"> <image x="0" y="0" width="117" height="136" transform="'''rotate(45)'''"
           xlink:href="test00.png"/> <polygon points="116.45671475544961,34.25000000000001,116.45671475544961,101.75,58.00000000000001,135.5,-0.45671475544961027,101.75,-0.45671475544961737,34.25000000000002,57.999999999999986,0.5," style="stroke:#f00;stroke-width:0.01;fill:none;"/> </g> 
<g id="g02" transform="translate(636.1538105676659 337.5)"> <image x="0" y="0" width="118" height="136" transform="'''rotate(45)'''"
           xlink:href="test01.png"/> <polygon points="117.45671475544961,34.25000000000001,117.45671475544961,101.75,59.00000000000001,135.5,0.5432852445503897,101.75,0.5432852445503826,34.25000000000002,58.999999999999986,0.5," style="stroke:#f00;stroke-width:0.01;fill:none;"/> </g> 
<g id="g03" transform="translate(571.201905283833 450.0)"> <image x="0" y="0" width="118" height="135" transform="'''rotate(45)'''"
           xlink:href="test02.png"/> <polygon points="117.45671475544961,33.25000000000001,117.45671475544961,100.75,59.00000000000001,134.5,0.5432852445503897,100.75,0.5432852445503826,33.25000000000002,58.999999999999986,-0.5," style="stroke:#f00;stroke-width:0.01;fill:none;"/> </g> 
<g id="g04" transform="translate(441.29809471616716 450.0)"> <image x="0" y="0" width="118" height="135" transform="'''rotate(45)'''"
           xlink:href="test03.png"/> <polygon points="117.45671475544961,33.25000000000001,117.45671475544961,100.75,59.00000000000001,134.5,0.5432852445503897,100.75,0.5432852445503826,33.25000000000002,58.999999999999986,-0.5," style="stroke:#f00;stroke-width:0.01;fill:none;"/> </g> 
<g id="g05" transform="translate(376.3461894323342 337.5)"> <image x="0" y="0" width="118" height="136" transform="'''rotate(45)'''"
           xlink:href="test04.png"/> <polygon points="117.45671475544961,34.25000000000001,117.45671475544961,101.75,59.00000000000001,135.5,0.5432852445503897,101.75,0.5432852445503826,34.25000000000002,58.999999999999986,0.5," style="stroke:#f00;stroke-width:0.01;fill:none;"/> </g> 
<g id="g06" transform="translate(441.29809471616704 225.0)"> <image x="0" y="0" width="118" height="135" transform="'''rotate(45)'''"
           xlink:href="test05.png"/> <polygon points="117.45671475544961,33.25000000000001,117.45671475544961,100.75,59.00000000000001,134.5,0.5432852445503897,100.75,0.5432852445503826,33.25000000000002,58.999999999999986,-0.5," style="stroke:#f00;stroke-width:0.01;fill:none;"/> </g> 
<g id="g07" transform="translate(571.2019052838327 225.0)"> <image x="0" y="0" width="118" height="135" transform="'''rotate(45)'''"
           xlink:href="test06.png"/> <polygon points="117.45671475544961,33.25000000000001,117.45671475544961,100.75,59.00000000000001,134.5,0.5432852445503897,100.75,0.5432852445503826,33.25000000000002,58.999999999999986,-0.5," style="stroke:#f00;stroke-width:0.01;fill:none;"/> </g> 
<g id="g08" transform="translate(766.0576211353316 337.5)"> <image x="0" y="0" width="118" height="136" transform="'''rotate(45)'''"
           xlink:href="test07.png"/> <polygon points="117.45671475544961,34.25000000000001,117.45671475544961,101.75,59.00000000000001,135.5,0.5432852445503897,101.75,0.5432852445503826,34.25000000000002,58.999999999999986,0.5," style="stroke:#f00;stroke-width:0.01;fill:none;"/> </g> 
<g id="g09" transform="translate(701.1057158514986 450.0)"> <image x="0" y="0" width="118" height="135" transform="'''rotate(45)'''"
           xlink:href="test08.png"/> <polygon points="117.45671475544961,33.25000000000001,117.45671475544961,100.75,59.00000000000001,134.5,0.5432852445503897,100.75,0.5432852445503826,33.25000000000002,58.999999999999986,-0.5," style="stroke:#f00;stroke-width:0.01;fill:none;"/> </g> 
<g id="g10" transform="translate(636.1538105676659 562.5)"> <image x="0" y="0" width="118" height="136" transform="'''rotate(45)'''"
           xlink:href="test09.png"/> <polygon points="117.45671475544961,34.25000000000001,117.45671475544961,101.75,59.00000000000001,135.5,0.5432852445503897,101.75,0.5432852445503826,34.25000000000002,58.999999999999986,0.5," style="stroke:#f00;stroke-width:0.01;fill:none;"/> </g> 
<g id="g11" transform="translate(506.25 562.5)"> <image x="0" y="0" width="117" height="136" transform="'''rotate(45)'''"
           xlink:href="test10.png"/> <polygon points="116.45671475544961,34.25000000000001,116.45671475544961,101.75,58.00000000000001,135.5,-0.45671475544961027,101.75,-0.45671475544961737,34.25000000000002,57.999999999999986,0.5," style="stroke:#f00;stroke-width:0.01;fill:none;"/> </g> 
<g id="g12" transform="translate(376.3461894323343 562.5)"> <image x="0" y="0" width="118" height="136" transform="'''rotate(45)'''"
           xlink:href="test11.png"/> <polygon points="117.45671475544961,34.25000000000001,117.45671475544961,101.75,59.00000000000001,135.5,0.5432852445503897,101.75,0.5432852445503826,34.25000000000002,58.999999999999986,0.5," style="stroke:#f00;stroke-width:0.01;fill:none;"/> </g> 
<g id="g13" transform="translate(311.39428414850136 450.0)"> <image x="0" y="0" width="118" height="135" transform="'''rotate(45)'''"
           xlink:href="test12.png"/> <polygon points="117.45671475544961,33.25000000000001,117.45671475544961,100.75,59.00000000000001,134.5,0.5432852445503897,100.75,0.5432852445503826,33.25000000000002,58.999999999999986,-0.5," style="stroke:#f00;stroke-width:0.01;fill:none;"/> </g> 
<g id="g14" transform="translate(246.4423788646684 337.5)"> <image x="0" y="0" width="118" height="136" transform="'''rotate(45)'''"
           xlink:href="test13.png"/> <polygon points="117.45671475544961,34.25000000000001,117.45671475544961,101.75,59.00000000000001,135.5,0.5432852445503897,101.75,0.5432852445503826,34.25000000000002,58.999999999999986,0.5," style="stroke:#f00;stroke-width:0.01;fill:none;"/> </g> 
<g id="g15" transform="translate(311.39428414850124 225.0)"> <image x="0" y="0" width="118" height="135" transform="'''rotate(45)'''"
           xlink:href="test14.png"/> <polygon points="117.45671475544961,33.25000000000001,117.45671475544961,100.75,59.00000000000001,134.5,0.5432852445503897,100.75,0.5432852445503826,33.25000000000002,58.999999999999986,-0.5," style="stroke:#f00;stroke-width:0.01;fill:none;"/> </g> 
<g id="g16" transform="translate(376.3461894323341 112.50000000000006)"> <image x="0" y="0" width="118" height="136" transform="'''rotate(45)'''"
           xlink:href="test15.png"/> <polygon points="117.45671475544961,34.25000000000001,117.45671475544961,101.75,59.00000000000001,135.5,0.5432852445503897,101.75,0.5432852445503826,34.25000000000002,58.999999999999986,0.5," style="stroke:#f00;stroke-width:0.01;fill:none;"/> </g> 
<g id="g17" transform="translate(506.2499999999999 112.5)"> <image x="0" y="0" width="117" height="136" transform="'''rotate(45)'''"
           xlink:href="test16.png"/> <polygon points="116.45671475544961,34.25000000000001,116.45671475544961,101.75,58.00000000000001,135.5,-0.45671475544961027,101.75,-0.45671475544961737,34.25000000000002,57.999999999999986,0.5," style="stroke:#f00;stroke-width:0.01;fill:none;"/> </g> 
<g id="g18" transform="translate(636.1538105676657 112.49999999999989)"> <image x="0" y="0" width="118" height="136" transform="'''rotate(45)'''"
           xlink:href="test17.png"/> <polygon points="117.45671475544961,34.25000000000001,117.45671475544961,101.75,59.00000000000001,135.5,0.5432852445503897,101.75,0.5432852445503826,34.25000000000002,58.999999999999986,0.5," style="stroke:#f00;stroke-width:0.01;fill:none;"/> </g> 
<g id="g19" transform="translate(701.1057158514986 224.99999999999977)"> <image x="0" y="0" width="118" height="136" transform="'''rotate(45)'''"
           xlink:href="test18.png"/> <polygon points="117.45671475544961,34.25000000000001,117.45671475544961,101.75,59.00000000000001,135.5,0.5432852445503897,101.75,0.5432852445503826,34.25000000000002,58.999999999999986,0.5," style="stroke:#f00;stroke-width:0.01;fill:none;"/> </g> 
<g id="fullHexes"><polygon points="629.6586200392826,367.5,629.6586200392826,442.5,564.7067147554496,480.0,499.75480947161674,442.5,499.75480947161674,367.5,564.7067147554496,330.0," style="stroke:#00f;stroke-width:0.01;fill:none;"/><polygon points="759.5624306069485,367.5,759.5624306069485,442.5,694.6105253231156,480.0,629.6586200392826,442.5,629.6586200392826,367.5,694.6105253231156,330.0," style="stroke:#00f;stroke-width:0.01;fill:none;"/><polygon points="694.6105253231156,480.0,694.6105253231156,555.0,629.6586200392826,592.5,564.7067147554496,555.0,564.7067147554496,480.0,629.6586200392826,442.5," style="stroke:#00f;stroke-width:0.01;fill:none;"/><polygon points="564.7067147554496,480.0,564.7067147554496,555.0,499.7548094716168,592.5,434.8029041877839,555.0,434.8029041877839,480.0,499.7548094716168,442.5," style="stroke:#00f;stroke-width:0.01;fill:none;"/><polygon points="499.75480947161674,367.5,499.75480947161674,442.5,434.80290418778384,480.0,369.85099890395094,442.5,369.85099890395094,367.5,434.80290418778384,330.0," style="stroke:#00f;stroke-width:0.01;fill:none;"/><polygon points="564.7067147554496,255.0,564.7067147554496,330.0,499.7548094716167,367.5,434.8029041877838,330.0,434.8029041877838,255.00000000000003,499.7548094716167,217.5," style="stroke:#00f;stroke-width:0.01;fill:none;"/><polygon points="694.6105253231153,255.0,694.6105253231153,330.0,629.6586200392824,367.5,564.7067147554494,330.0,564.7067147554494,255.00000000000003,629.6586200392824,217.5," style="stroke:#00f;stroke-width:0.01;fill:none;"/><polygon points="889.4662411746142,367.5,889.4662411746142,442.5,824.5143358907812,480.0,759.5624306069483,442.5,759.5624306069483,367.5,824.5143358907812,330.0," style="stroke:#00f;stroke-width:0.01;fill:none;"/><polygon points="824.5143358907812,480.0,824.5143358907812,555.0,759.5624306069483,592.5,694.6105253231153,555.0,694.6105253231153,480.0,759.5624306069483,442.5," style="stroke:#00f;stroke-width:0.01;fill:none;"/><polygon points="759.5624306069485,592.5,759.5624306069485,667.5,694.6105253231156,705.0,629.6586200392826,667.5,629.6586200392826,592.5,694.6105253231156,555.0," style="stroke:#00f;stroke-width:0.01;fill:none;"/><polygon points="629.6586200392826,592.5,629.6586200392826,667.5,564.7067147554496,705.0,499.75480947161674,667.5,499.75480947161674,592.5,564.7067147554496,555.0," style="stroke:#00f;stroke-width:0.01;fill:none;"/><polygon points="499.75480947161685,592.5,499.75480947161685,667.5,434.80290418778395,705.0,369.85099890395105,667.5,369.85099890395105,592.5,434.80290418778395,555.0," style="stroke:#00f;stroke-width:0.01;fill:none;"/><polygon points="434.8029041877839,480.0,434.8029041877839,555.0,369.850998903951,592.5,304.8990936201181,555.0,304.8990936201181,480.0,369.850998903951,442.5," style="stroke:#00f;stroke-width:0.01;fill:none;"/><polygon points="369.85099890395094,367.5,369.85099890395094,442.5,304.89909362011804,480.0,239.94718833628514,442.5,239.94718833628514,367.5,304.89909362011804,330.0," style="stroke:#00f;stroke-width:0.01;fill:none;"/><polygon points="434.8029041877838,255.0,434.8029041877838,330.0,369.8509989039509,367.5,304.899093620118,330.0,304.899093620118,255.00000000000003,369.8509989039509,217.5," style="stroke:#00f;stroke-width:0.01;fill:none;"/><polygon points="499.7548094716166,142.50000000000006,499.7548094716166,217.50000000000006,434.8029041877837,255.00000000000006,369.8509989039508,217.50000000000006,369.8509989039508,142.50000000000009,434.8029041877837,105.00000000000006," style="stroke:#00f;stroke-width:0.01;fill:none;"/><polygon points="629.6586200392824,142.5,629.6586200392824,217.5,564.7067147554495,255.0,499.7548094716166,217.5,499.7548094716166,142.50000000000003,564.7067147554495,105.0," style="stroke:#00f;stroke-width:0.01;fill:none;"/><polygon points="759.5624306069483,142.4999999999999,759.5624306069483,217.4999999999999,694.6105253231153,254.9999999999999,629.6586200392824,217.4999999999999,629.6586200392824,142.49999999999991,694.6105253231153,104.99999999999989," style="stroke:#00f;stroke-width:0.01;fill:none;"/><polygon points="824.5143358907812,254.99999999999977,824.5143358907812,329.9999999999998,759.5624306069483,367.4999999999998,694.6105253231153,329.9999999999998,694.6105253231153,254.9999999999998,759.5624306069483,217.49999999999977," style="stroke:#00f;stroke-width:0.01;fill:none;"/></g><g id="smallHexes"><polygon points="623.1634295108993,371.25,623.1634295108993,438.75,564.7067147554496,472.5,506.25,438.75,506.25,371.25,564.7067147554496,337.5," style="stroke:#00f;stroke-width:0.01;fill:none;"/><polygon points="753.0672400785652,371.25,753.0672400785652,438.75,694.6105253231156,472.5,636.1538105676659,438.75,636.1538105676659,371.25,694.6105253231156,337.5," style="stroke:#00f;stroke-width:0.01;fill:none;"/><polygon points="688.1153347947322,483.75,688.1153347947322,551.25,629.6586200392826,585.0,571.201905283833,551.25,571.201905283833,483.75,629.6586200392826,450.0," style="stroke:#00f;stroke-width:0.01;fill:none;"/><polygon points="558.2115242270663,483.75,558.2115242270663,551.25,499.75480947161674,585.0,441.29809471616716,551.25,441.2980947161671,483.75,499.75480947161674,450.0," style="stroke:#00f;stroke-width:0.01;fill:none;"/><polygon points="493.25961894323336,371.25,493.25961894323336,438.75,434.8029041877838,472.5,376.3461894323342,438.75,376.34618943233414,371.25,434.8029041877838,337.5," style="stroke:#00f;stroke-width:0.01;fill:none;"/><polygon points="558.2115242270662,258.75,558.2115242270662,326.25,499.7548094716166,360.0,441.29809471616704,326.25,441.298094716167,258.75,499.7548094716166,225.0," style="stroke:#00f;stroke-width:0.01;fill:none;"/><polygon points="688.115334794732,258.75,688.115334794732,326.25,629.6586200392824,360.0,571.2019052838327,326.25,571.2019052838327,258.75,629.6586200392824,225.0," style="stroke:#00f;stroke-width:0.01;fill:none;"/><polygon points="882.9710506462309,371.25,882.9710506462309,438.75,824.5143358907812,472.5,766.0576211353316,438.75,766.0576211353316,371.25,824.5143358907812,337.5," style="stroke:#00f;stroke-width:0.01;fill:none;"/><polygon points="818.0191453623979,483.75,818.0191453623979,551.25,759.5624306069483,585.0,701.1057158514986,551.25,701.1057158514986,483.75,759.5624306069483,450.0," style="stroke:#00f;stroke-width:0.01;fill:none;"/><polygon points="753.0672400785652,596.25,753.0672400785652,663.75,694.6105253231156,697.5,636.1538105676659,663.75,636.1538105676659,596.25,694.6105253231156,562.5," style="stroke:#00f;stroke-width:0.01;fill:none;"/><polygon points="623.1634295108993,596.25,623.1634295108993,663.75,564.7067147554496,697.5,506.25,663.75,506.25,596.25,564.7067147554496,562.5," style="stroke:#00f;stroke-width:0.01;fill:none;"/><polygon points="493.2596189432335,596.25,493.2596189432335,663.75,434.8029041877839,697.5,376.3461894323343,663.75,376.34618943233426,596.25,434.8029041877839,562.5," style="stroke:#00f;stroke-width:0.01;fill:none;"/><polygon points="428.3077136594005,483.75,428.3077136594005,551.25,369.85099890395094,585.0,311.39428414850136,551.25,311.3942841485013,483.75,369.85099890395094,450.0," style="stroke:#00f;stroke-width:0.01;fill:none;"/><polygon points="363.35580837556756,371.25,363.35580837556756,438.75,304.899093620118,472.5,246.44237886466837,438.75,246.44237886466837,371.25,304.899093620118,337.5," style="stroke:#00f;stroke-width:0.01;fill:none;"/><polygon points="428.3077136594004,258.75,428.3077136594004,326.25,369.8509989039508,360.0,311.39428414850124,326.25,311.3942841485012,258.75,369.8509989039508,225.0," style="stroke:#00f;stroke-width:0.01;fill:none;"/><polygon points="493.25961894323325,146.25000000000006,493.25961894323325,213.75000000000006,434.80290418778367,247.50000000000006,376.3461894323341,213.75000000000006,376.34618943233403,146.25000000000009,434.80290418778367,112.50000000000006," style="stroke:#00f;stroke-width:0.01;fill:none;"/><polygon points="623.163429510899,146.25,623.163429510899,213.75,564.7067147554494,247.5,506.2499999999998,213.75,506.2499999999998,146.25000000000003,564.7067147554494,112.5," style="stroke:#00f;stroke-width:0.01;fill:none;"/><polygon points="753.067240078565,146.2499999999999,753.067240078565,213.7499999999999,694.6105253231153,247.4999999999999,636.1538105676657,213.7499999999999,636.1538105676657,146.24999999999991,694.6105253231153,112.49999999999989," style="stroke:#00f;stroke-width:0.01;fill:none;"/><polygon points="818.0191453623979,258.7499999999998,818.0191453623979,326.2499999999998,759.5624306069483,359.9999999999998,701.1057158514986,326.2499999999998,701.1057158514986,258.7499999999998,759.5624306069483,224.99999999999977," style="stroke:#00f;stroke-width:0.01;fill:none;"/></g></svg>