 <svg version="1.1"
             xmlns="http://www.w3.org/2000/svg" xmlns:xlink="http://www.w3.org/1999/xlink"
             width="2250.0" height="2500.0"> 
 <g id="g01" transform="translate(1125.0 1250.0)"> <image x="0" y="0" width="824" height="950" transform="'''rotate(45)'''"
           xlink:href="test00.png"/> <polygon points="823.3620667976083,237.50000000000003,823.3620667976083,712.5,412.00000000000006,950.0,0.6379332023915936,712.5,0.6379332023915367,237.50000000000014,411.9999999999999,0.0," style="stroke:#f00;stroke-width:0.01;fill:none;"/> </g> 
<g id="g02" transform="translate(1991.0254037844388 1250.0)"> <image x="0" y="0" width="824" height="950" transform="'''rotate(45)'''"
           xlink:href="test01.png"/> <polygon points="823.3620667976083,237.50000000000003,823.3620667976083,712.5,412.00000000000006,950.0,0.6379332023915936,712.5,0.6379332023915367,237.50000000000014,411.9999999999999,0.0," style="stroke:#f00;stroke-width:0.01;fill:none;"/> </g> 
<g id="g03" transform="translate(1558.0127018922194 2000.0)"> <image x="0" y="0" width="824" height="950" transform="'''rotate(45)'''"
           xlink:href="test02.png"/> <polygon points="823.3620667976083,237.50000000000003,823.3620667976083,712.5,412.00000000000006,950.0,0.6379332023915936,712.5,0.6379332023915367,237.50000000000014,411.9999999999999,0.0," style="stroke:#f00;stroke-width:0.01;fill:none;"/> </g> 
<g id="g04" transform="translate(691.9872981077808 2000.0)"> <image x="0" y="0" width="824" height="950" transform="'''rotate(45)'''"
           xlink:href="test03.png"/> <polygon points="823.3620667976083,237.50000000000003,823.3620667976083,712.5,412.00000000000006,950.0,0.6379332023915936,712.5,0.6379332023915367,237.50000000000014,411.9999999999999,0.0," style="stroke:#f00;stroke-width:0.01;fill:none;"/> </g> 
<g id="g05" transform="translate(258.9745962155614 1250.0)"> <image x="0" y="0" width="824" height="950" transform="'''rotate(45)'''"
           xlink:href="test04.png"/> <polygon points="823.3620667976083,237.50000000000003,823.3620667976083,712.5,412.00000000000006,950.0,0.6379332023915936,712.5,0.6379332023915367,237.50000000000014,411.9999999999999,0.0," style="stroke:#f00;stroke-width:0.01;fill:none;"/> </g> 
<g id="g06" transform="translate(691.9872981077804 500.0000000000002)"> <image x="0" y="0" width="824" height="950" transform="'''rotate(45)'''"
           xlink:href="test05.png"/> <polygon points="823.3620667976083,237.50000000000003,823.3620667976083,712.5,412.00000000000006,950.0,0.6379332023915936,712.5,0.6379332023915367,237.50000000000014,411.9999999999999,0.0," style="stroke:#f00;stroke-width:0.01;fill:none;"/> </g> 
<g id="g07" transform="translate(1558.0127018922185 499.99999999999955)"> <image x="0" y="0" width="824" height="951" transform="'''rotate(45)'''"
           xlink:href="test06.png"/> <polygon points="823.3620667976083,237.50000000000003,823.3620667976083,712.5,412.00000000000006,950.0,0.6379332023915936,712.5,0.6379332023915367,237.50000000000014,411.9999999999999,0.0," style="stroke:#f00;stroke-width:0.01;fill:none;"/> </g> 
<g id="g08" transform="translate(2857.050807568877 1250.0)"> <image x="0" y="0" width="824" height="950" transform="'''rotate(45)'''"
           xlink:href="test07.png"/> <polygon points="823.3620667976083,237.50000000000003,823.3620667976083,712.5,412.00000000000006,950.0,0.6379332023915936,712.5,0.6379332023915367,237.50000000000014,411.9999999999999,0.0," style="stroke:#f00;stroke-width:0.01;fill:none;"/> </g> 
<g id="g09" transform="translate(2424.0381056766582 2000.0)"> <image x="0" y="0" width="824" height="950" transform="'''rotate(45)'''"
           xlink:href="test08.png"/> <polygon points="823.3620667976083,237.50000000000003,823.3620667976083,712.5,412.00000000000006,950.0,0.6379332023915936,712.5,0.6379332023915367,237.50000000000014,411.9999999999999,0.0," style="stroke:#f00;stroke-width:0.01;fill:none;"/> </g> 
<g id="g10" transform="translate(1991.0254037844388 2750.0)"> <image x="0" y="0" width="824" height="950" transform="'''rotate(45)'''"
           xlink:href="test09.png"/> <polygon points="823.3620667976083,237.50000000000003,823.3620667976083,712.5,412.00000000000006,950.0,0.6379332023915936,712.5,0.6379332023915367,237.50000000000014,411.9999999999999,0.0," style="stroke:#f00;stroke-width:0.01;fill:none;"/> </g> 
<g id="g11" transform="translate(1125.0 2750.0)"> <image x="0" y="0" width="824" height="950" transform="'''rotate(45)'''"
           xlink:href="test10.png"/> <polygon points="823.3620667976083,237.50000000000003,823.3620667976083,712.5,412.00000000000006,950.0,0.6379332023915936,712.5,0.6379332023915367,237.50000000000014,411.9999999999999,0.0," style="stroke:#f00;stroke-width:0.01;fill:none;"/> </g> 
<g id="g12" transform="translate(258.97459621556163 2750.0)"> <image x="0" y="0" width="824" height="950" transform="'''rotate(45)'''"
           xlink:href="test11.png"/> <polygon points="823.3620667976083,237.50000000000003,823.3620667976083,712.5,412.00000000000006,950.0,0.6379332023915936,712.5,0.6379332023915367,237.50000000000014,411.9999999999999,0.0," style="stroke:#f00;stroke-width:0.01;fill:none;"/> </g> 
<g id="g13" transform="translate(-174.03810567665778 2000.0)"> <image x="0" y="0" width="824" height="950" transform="'''rotate(45)'''"
           xlink:href="test12.png"/> <polygon points="823.3620667976083,237.50000000000003,823.3620667976083,712.5,412.00000000000006,950.0,0.6379332023915936,712.5,0.6379332023915367,237.50000000000014,411.9999999999999,0.0," style="stroke:#f00;stroke-width:0.01;fill:none;"/> </g> 
<g id="g14" transform="translate(-607.0508075688772 1250.0)"> <image x="0" y="0" width="824" height="950" transform="'''rotate(45)'''"
           xlink:href="test13.png"/> <polygon points="823.3620667976083,237.50000000000003,823.3620667976083,712.5,412.00000000000006,950.0,0.6379332023915936,712.5,0.6379332023915367,237.50000000000014,411.9999999999999,0.0," style="stroke:#f00;stroke-width:0.01;fill:none;"/> </g> 
<g id="g15" transform="translate(-174.03810567665823 500.00000000000045)"> <image x="0" y="0" width="824" height="951" transform="'''rotate(45)'''"
           xlink:href="test14.png"/> <polygon points="823.3620667976083,237.50000000000003,823.3620667976083,712.5,412.00000000000006,950.0,0.6379332023915936,712.5,0.6379332023915367,237.50000000000014,411.9999999999999,0.0," style="stroke:#f00;stroke-width:0.01;fill:none;"/> </g> 
<g id="g16" transform="translate(258.9745962155607 -249.99999999999955)"> <image x="0" y="0" width="824" height="951" transform="'''rotate(45)'''"
           xlink:href="test15.png"/> <polygon points="823.3620667976083,237.50000000000003,823.3620667976083,712.5,412.00000000000006,950.0,0.6379332023915936,712.5,0.6379332023915367,237.50000000000014,411.9999999999999,0.0," style="stroke:#f00;stroke-width:0.01;fill:none;"/> </g> 
<g id="g17" transform="translate(1124.999999999999 -250.0)"> <image x="0" y="0" width="824" height="950" transform="'''rotate(45)'''"
           xlink:href="test16.png"/> <polygon points="823.3620667976083,237.50000000000003,823.3620667976083,712.5,412.00000000000006,950.0,0.6379332023915936,712.5,0.6379332023915367,237.50000000000014,411.9999999999999,0.0," style="stroke:#f00;stroke-width:0.01;fill:none;"/> </g> 
<g id="g18" transform="translate(1991.0254037844375 -250.00000000000068)"> <image x="0" y="0" width="824" height="951" transform="'''rotate(45)'''"
           xlink:href="test17.png"/> <polygon points="823.3620667976083,237.50000000000003,823.3620667976083,712.5,412.00000000000006,950.0,0.6379332023915936,712.5,0.6379332023915367,237.50000000000014,411.9999999999999,0.0," style="stroke:#f00;stroke-width:0.01;fill:none;"/> </g> 
<g id="g19" transform="translate(2424.0381056766573 499.99999999999864)"> <image x="0" y="0" width="824" height="951" transform="'''rotate(45)'''"
           xlink:href="test18.png"/> <polygon points="823.3620667976083,237.50000000000003,823.3620667976083,712.5,412.00000000000006,950.0,0.6379332023915936,712.5,0.6379332023915367,237.50000000000014,411.9999999999999,0.0," style="stroke:#f00;stroke-width:0.01;fill:none;"/> </g> 
<g id="fullHexes"><polygon points="1969.3747686898278,1475.0,1969.3747686898278,1975.0,1536.3620667976083,2225.0,1103.349364905389,1975.0,1103.349364905389,1475.0000000000002,1536.3620667976083,1225.0," style="stroke:#00f;stroke-width:0.01;fill:none;"/><polygon points="2835.4001724742666,1475.0,2835.4001724742666,1975.0,2402.387470582047,2225.0,1969.3747686898278,1975.0,1969.3747686898278,1475.0000000000002,2402.387470582047,1225.0," style="stroke:#00f;stroke-width:0.01;fill:none;"/><polygon points="2402.387470582047,2225.0,2402.387470582047,2725.0,1969.3747686898278,2975.0,1536.3620667976083,2725.0,1536.3620667976083,2225.0,1969.3747686898278,1975.0," style="stroke:#00f;stroke-width:0.01;fill:none;"/><polygon points="1536.3620667976086,2225.0,1536.3620667976086,2725.0,1103.3493649053892,2975.0,670.3366630131698,2725.0,670.3366630131698,2225.0,1103.3493649053892,1975.0," style="stroke:#00f;stroke-width:0.01;fill:none;"/><polygon points="1103.3493649053892,1475.0,1103.3493649053892,1975.0,670.3366630131698,2225.0,237.3239611209504,1975.0,237.32396112095034,1475.0000000000002,670.3366630131696,1225.0," style="stroke:#00f;stroke-width:0.01;fill:none;"/><polygon points="1536.3620667976081,725.0000000000002,1536.3620667976081,1225.0000000000002,1103.3493649053887,1475.0000000000002,670.3366630131693,1225.0000000000002,670.3366630131693,725.0000000000003,1103.3493649053887,475.0000000000002," style="stroke:#00f;stroke-width:0.01;fill:none;"/><polygon points="2402.3874705820463,724.9999999999995,2402.3874705820463,1224.9999999999995,1969.3747686898269,1474.9999999999995,1536.3620667976074,1224.9999999999995,1536.3620667976074,724.9999999999997,1969.3747686898269,474.99999999999955," style="stroke:#00f;stroke-width:0.01;fill:none;"/><polygon points="3701.425576258705,1475.0,3701.425576258705,1975.0,3268.4128743664855,2225.0,2835.400172474266,1975.0,2835.400172474266,1475.0000000000002,3268.4128743664855,1225.0," style="stroke:#00f;stroke-width:0.01;fill:none;"/><polygon points="3268.412874366486,2225.0,3268.412874366486,2725.0,2835.4001724742666,2975.0,2402.387470582047,2725.0,2402.387470582047,2225.0,2835.4001724742666,1975.0," style="stroke:#00f;stroke-width:0.01;fill:none;"/><polygon points="2835.4001724742666,2975.0,2835.4001724742666,3475.0,2402.387470582047,3725.0,1969.3747686898278,3475.0,1969.3747686898278,2975.0,2402.387470582047,2725.0," style="stroke:#00f;stroke-width:0.01;fill:none;"/><polygon points="1969.3747686898278,2975.0,1969.3747686898278,3475.0,1536.3620667976083,3725.0,1103.349364905389,3475.0,1103.349364905389,2975.0,1536.3620667976083,2725.0," style="stroke:#00f;stroke-width:0.01;fill:none;"/><polygon points="1103.3493649053894,2975.0,1103.3493649053894,3475.0,670.33666301317,3725.0,237.32396112095063,3475.0,237.32396112095057,2975.0,670.3366630131699,2725.0," style="stroke:#00f;stroke-width:0.01;fill:none;"/><polygon points="670.33666301317,2225.0,670.33666301317,2725.0,237.3239611209506,2975.0,-195.68874077126878,2725.0,-195.68874077126884,2225.0,237.3239611209505,1975.0," style="stroke:#00f;stroke-width:0.01;fill:none;"/><polygon points="237.32396112095051,1475.0,237.32396112095051,1975.0,-195.6887407712688,2225.0,-628.7014426634883,1975.0,-628.7014426634883,1475.0000000000002,-195.68874077126893,1225.0," style="stroke:#00f;stroke-width:0.01;fill:none;"/><polygon points="670.3366630131695,725.0000000000005,670.3366630131695,1225.0000000000005,237.32396112095014,1475.0000000000005,-195.68874077126924,1225.0000000000005,-195.6887407712693,725.0000000000006,237.32396112095003,475.00000000000045," style="stroke:#00f;stroke-width:0.01;fill:none;"/><polygon points="1103.3493649053885,-24.999999999999517,1103.3493649053885,475.00000000000045,670.3366630131691,725.0000000000005,237.32396112094972,475.00000000000045,237.32396112094966,-24.999999999999403,670.336663013169,-274.99999999999955," style="stroke:#00f;stroke-width:0.01;fill:none;"/><polygon points="1969.3747686898269,-24.99999999999997,1969.3747686898269,475.0,1536.3620667976074,725.0,1103.349364905388,475.0,1103.349364905388,-24.999999999999858,1536.3620667976074,-275.0," style="stroke:#00f;stroke-width:0.01;fill:none;"/><polygon points="2835.400172474265,-25.000000000000654,2835.400172474265,474.9999999999993,2402.387470582046,724.9999999999993,1969.3747686898264,474.9999999999993,1969.3747686898264,-25.00000000000054,2402.387470582046,-275.0000000000007," style="stroke:#00f;stroke-width:0.01;fill:none;"/><polygon points="3268.412874366485,724.9999999999986,3268.412874366485,1224.9999999999986,2835.4001724742657,1474.9999999999986,2402.3874705820463,1224.9999999999986,2402.3874705820463,724.9999999999987,2835.4001724742657,474.99999999999864," style="stroke:#00f;stroke-width:0.01;fill:none;"/></g><g id="smallHexes"><polygon points="1947.7241335952167,1487.5,1947.7241335952167,1962.5,1536.3620667976083,2200.0,1125.0,1962.5,1125.0,1487.5000000000002,1536.3620667976083,1250.0," style="stroke:#00f;stroke-width:0.01;fill:none;"/><polygon points="2813.7495373796555,1487.5,2813.7495373796555,1962.5,2402.387470582047,2200.0,1991.0254037844388,1962.5,1991.0254037844388,1487.5000000000002,2402.387470582047,1250.0," style="stroke:#00f;stroke-width:0.01;fill:none;"/><polygon points="2380.736835487436,2237.5,2380.736835487436,2712.5,1969.3747686898278,2950.0,1558.0127018922194,2712.5,1558.0127018922194,2237.5,1969.3747686898278,2000.0," style="stroke:#00f;stroke-width:0.01;fill:none;"/><polygon points="1514.7114317029975,2237.5,1514.7114317029975,2712.5,1103.3493649053892,2950.0,691.9872981077808,2712.5,691.9872981077807,2237.5,1103.3493649053892,2000.0," style="stroke:#00f;stroke-width:0.01;fill:none;"/><polygon points="1081.698729810778,1487.5,1081.698729810778,1962.5,670.3366630131698,2200.0,258.97459621556135,1962.5,258.9745962155613,1487.5000000000002,670.3366630131696,1250.0," style="stroke:#00f;stroke-width:0.01;fill:none;"/><polygon points="1514.711431702997,737.5000000000002,1514.711431702997,1212.5000000000002,1103.3493649053887,1450.0000000000002,691.9872981077804,1212.5000000000002,691.9872981077802,737.5000000000003,1103.3493649053887,500.0000000000002," style="stroke:#00f;stroke-width:0.01;fill:none;"/><polygon points="2380.736835487435,737.4999999999995,2380.736835487435,1212.4999999999995,1969.3747686898269,1449.9999999999995,1558.0127018922185,1212.4999999999995,1558.0127018922185,737.4999999999997,1969.3747686898269,499.99999999999955," style="stroke:#00f;stroke-width:0.01;fill:none;"/><polygon points="3679.774941164094,1487.5,3679.774941164094,1962.5,3268.4128743664855,2200.0,2857.050807568877,1962.5,2857.050807568877,1487.5000000000002,3268.4128743664855,1250.0," style="stroke:#00f;stroke-width:0.01;fill:none;"/><polygon points="3246.762239271875,2237.5,3246.762239271875,2712.5,2835.4001724742666,2950.0,2424.0381056766582,2712.5,2424.0381056766582,2237.5,2835.4001724742666,2000.0," style="stroke:#00f;stroke-width:0.01;fill:none;"/><polygon points="2813.7495373796555,2987.5,2813.7495373796555,3462.5,2402.387470582047,3700.0,1991.0254037844388,3462.5,1991.0254037844388,2987.5,2402.387470582047,2750.0," style="stroke:#00f;stroke-width:0.01;fill:none;"/><polygon points="1947.7241335952167,2987.5,1947.7241335952167,3462.5,1536.3620667976083,3700.0,1125.0,3462.5,1125.0,2987.5,1536.3620667976083,2750.0," style="stroke:#00f;stroke-width:0.01;fill:none;"/><polygon points="1081.6987298107783,2987.5,1081.6987298107783,3462.5,670.33666301317,3700.0,258.9745962155616,3462.5,258.9745962155615,2987.5,670.3366630131699,2750.0," style="stroke:#00f;stroke-width:0.01;fill:none;"/><polygon points="648.6860279185589,2237.5,648.6860279185589,2712.5,237.3239611209506,2950.0,-174.03810567665784,2712.5,-174.0381056766579,2237.5,237.3239611209505,2000.0," style="stroke:#00f;stroke-width:0.01;fill:none;"/><polygon points="215.67332602633957,1487.5,215.67332602633957,1962.5,-195.6887407712688,2200.0,-607.0508075688772,1962.5,-607.0508075688773,1487.5000000000002,-195.68874077126893,1250.0," style="stroke:#00f;stroke-width:0.01;fill:none;"/><polygon points="648.6860279185585,737.5000000000005,648.6860279185585,1212.5000000000005,237.32396112095014,1450.0000000000005,-174.0381056766583,1212.5000000000005,-174.03810567665835,737.5000000000006,237.32396112095003,500.00000000000045," style="stroke:#00f;stroke-width:0.01;fill:none;"/><polygon points="1081.6987298107774,-12.499999999999517,1081.6987298107774,462.50000000000045,670.3366630131691,700.0000000000005,258.97459621556067,462.50000000000045,258.9745962155606,-12.499999999999403,670.336663013169,-249.99999999999955," style="stroke:#00f;stroke-width:0.01;fill:none;"/><polygon points="1947.7241335952158,-12.499999999999972,1947.7241335952158,462.5,1536.3620667976074,700.0,1124.999999999999,462.5,1124.999999999999,-12.499999999999858,1536.3620667976074,-250.0," style="stroke:#00f;stroke-width:0.01;fill:none;"/><polygon points="2813.749537379654,-12.500000000000654,2813.749537379654,462.4999999999993,2402.387470582046,699.9999999999993,1991.0254037844375,462.4999999999993,1991.0254037844375,-12.50000000000054,2402.387470582046,-250.00000000000068," style="stroke:#00f;stroke-width:0.01;fill:none;"/><polygon points="3246.762239271874,737.4999999999986,3246.762239271874,1212.4999999999986,2835.4001724742657,1449.9999999999986,2424.0381056766573,1212.4999999999986,2424.0381056766573,737.4999999999987,2835.4001724742657,499.99999999999864," style="stroke:#00f;stroke-width:0.01;fill:none;"/></g></svg>